<svg id="Layer_1" enable-background="new 0 0 510 510" height="512" viewBox="0 0 510 510" width="512" xmlns="http://www.w3.org/2000/svg"><g id="XMLID_2244_"><path id="XMLID_2318_" d="m255 465 15-210-15-210c-7.193 0-247.807 0-255 0v360c7.195 1.693 247.81 58.309 255 60z" fill="#edf5ff"/><path id="XMLID_2316_" d="m255 465v-420h255v360z" fill="#90cc1c"/><g id="XMLID_2285_"><g><g id="XMLID_536_"><path d="m60 120h90v30h-90z" fill="#b9dd39"/></g></g></g><g id="XMLID_2271_"><g><g id="XMLID_538_"><path d="m60 180h150v30h-150z" fill="#b9dd39"/></g></g></g><g id="XMLID_2268_"><g><g id="XMLID_539_"><path d="m60 240h150v30h-150z" fill="#b9dd39"/></g></g></g><g id="XMLID_2265_"><g><path id="XMLID_542_" d="m60 300h150v30h-150z" fill="#b9dd39"/></g></g><path id="XMLID_2256_" d="m510 465h-255v-.001c0-33.137 26.863-59.999 60-59.999h195z" fill="#00b44b"/><path id="XMLID_2246_" d="m0 465h255v-.001c0-33.137-26.863-59.999-60-59.999h-195z" fill="#90cc1c"/><path id="XMLID_2324_" d="m435 141v84c0 33.137-26.863 60-60 60-33.137 0-60-26.863-60-60v-30z" fill="#ffbfab"/><path id="XMLID_2241_" d="m387.333 195h-72.333v-12.334c0-26.326 21.341-47.666 47.667-47.666h72.333v12.332c0 26.326-21.342 47.668-47.667 47.668z" fill="#b35f49"/></g></svg>